<svg width="18" height="16" viewBox="0 0 18 16" fill="none" xmlns="http://www.w3.org/2000/svg">
    <path d="M17.25 13.25C17.25 13.6478 17.092 14.0294 16.8107 14.3107C16.5294 14.592 16.1478 14.75 15.75 14.75H2.25C1.85218 14.75 1.47064 14.592 1.18934 14.3107C0.908035 14.0294 0.75 13.6478 0.75 13.25V5C0.75 4.60218 0.908035 4.22064 1.18934 3.93934C1.47064 3.65804 1.85218 3.5 2.25 3.5H5.25L6.75 1.25H11.25L12.75 3.5H15.75C16.1478 3.5 16.5294 3.65804 16.8107 3.93934C17.092 4.22064 17.25 4.60218 17.25 5V13.25Z" stroke="white" stroke-linecap="round" stroke-linejoin="round"/>
    <path d="M9 11.75C10.6569 11.75 12 10.4069 12 8.75C12 7.09315 10.6569 5.75 9 5.75C7.34315 5.75 6 7.09315 6 8.75C6 10.4069 7.34315 11.75 9 11.75Z" stroke="white" stroke-linecap="round" stroke-linejoin="round"/>
</svg>

