<svg width="19" height="19" viewBox="0 0 19 19" fill="none" xmlns="http://www.w3.org/2000/svg">
    <path d="M17.0516 2.88506C16.6153 2.43462 16.0972 2.07729 15.527 1.8335C14.9568 1.58971 14.3457 1.46423 13.7284 1.46423C13.1112 1.46423 12.5001 1.58971 11.9299 1.8335C11.3597 2.07729 10.8416 2.43462 10.4053 2.88506L9.49975 3.81946L8.59422 2.88506C7.71286 1.97562 6.51749 1.4647 5.27106 1.4647C4.02464 1.4647 2.82926 1.97562 1.94791 2.88506C1.06655 3.79451 0.571411 5.02797 0.571411 6.31412C0.571411 7.60026 1.06655 8.83373 1.94791 9.74317L2.85344 10.6776L9.49975 17.5357L16.1461 10.6776L17.0516 9.74317C17.4881 9.29293 17.8344 8.75836 18.0707 8.16999C18.3069 7.58163 18.4286 6.95099 18.4286 6.31412C18.4286 5.67724 18.3069 5.0466 18.0707 4.45824C17.8344 3.86987 17.4881 3.3353 17.0516 2.88506V2.88506Z" stroke="#3E5C76" stroke-linecap="round" stroke-linejoin="round"/>
</svg>
