<svg width="12" height="18" viewBox="0 0 12 18" fill="none" xmlns="http://www.w3.org/2000/svg">
    <path d="M11.25 7.5V9C11.25 10.3924 10.6969 11.7277 9.71231 12.7123C8.72774 13.6969 7.39239 14.25 6 14.25M6 14.25C4.60761 14.25 3.27226 13.6969 2.28769 12.7123C1.30312 11.7277 0.75 10.3924 0.75 9V7.5M6 14.25V17.25M3 17.25H9M6 0.75C5.40326 0.75 4.83097 0.987053 4.40901 1.40901C3.98705 1.83097 3.75 2.40326 3.75 3V9C3.75 9.59674 3.98705 10.169 4.40901 10.591C4.83097 11.0129 5.40326 11.25 6 11.25C6.59674 11.25 7.16903 11.0129 7.59099 10.591C8.01295 10.169 8.25 9.59674 8.25 9V3C8.25 2.40326 8.01295 1.83097 7.59099 1.40901C7.16903 0.987053 6.59674 0.75 6 0.75Z" stroke="white" stroke-linecap="round" stroke-linejoin="round"/>
</svg>

