<svg width="22" height="22" viewBox="0 0 22 22" fill="none" xmlns="http://www.w3.org/2000/svg">
    <path d="M11.9821 7.94903L12.0133 7.45L11.9977 7.44903H11.9821V7.94903ZM7.61766 7.69501L7.62341 7.19501H7.61766V7.69501ZM7.23621 18.7965H6.73621V19.2965H7.23621V18.7965ZM7.23621 17.7372H7.73621V17.2372H7.23621V17.7372ZM5.62604 17.2711L5.15454 17.1047L5.02511 17.4714L5.34869 17.6871L5.62604 17.2711ZM5.88028 16.5507L6.15763 16.1347L5.62274 15.7781L5.40878 16.3843L5.88028 16.5507ZM7.49044 14.7287L7.69351 14.2718L7.68185 14.2666L7.66993 14.262L7.49044 14.7287ZM7.36333 11.2118L7.449 11.7044L7.86333 11.6323V11.2118H7.36333ZM7.36333 10.1524V9.65244H6.86333V10.1524H7.36333ZM7.99892 10.1524H8.49892V9.65244H7.99892V10.1524ZM7.99892 11.1694H7.49892V11.6694H7.99892V11.1694ZM9.35485 11.5507L9.82302 11.7263L9.95777 11.3669L9.64547 11.1439L9.35485 11.5507ZM9.10061 12.2287L8.84337 12.6575L9.35803 12.9663L9.56878 12.4043L9.10061 12.2287ZM7.99892 13.966L8.19375 13.5055L8.18823 13.5032L7.99892 13.966ZM7.99892 17.6948L7.91992 17.2011L7.49892 17.2684V17.6948H7.99892ZM7.99892 18.7965V19.2965H8.49892V18.7965H7.99892ZM20.3804 2.73716C20.3804 2.74416 20.3709 2.865 20.0687 3.06511C19.7853 3.25274 19.3422 3.44077 18.7492 3.60619C17.5703 3.93507 15.9122 4.14394 14.0583 4.14394V5.14394C15.9757 5.14394 17.7286 4.92908 19.0179 4.56941C19.6591 4.39055 20.2143 4.16809 20.6208 3.89888C21.0085 3.64217 21.3804 3.25982 21.3804 2.73716H20.3804ZM14.0583 4.14394C12.2045 4.14394 10.5464 3.93507 9.36748 3.60619C8.77452 3.44077 8.33133 3.25274 8.04798 3.06511C7.74577 2.865 7.7363 2.74416 7.7363 2.73716H6.7363C6.7363 3.25982 7.10819 3.64217 7.49587 3.89888C7.9024 4.16809 8.45762 4.39055 9.09877 4.56941C10.3881 4.92908 12.141 5.14394 14.0583 5.14394V4.14394ZM7.7363 2.73716C7.7363 2.73016 7.74577 2.60933 8.04798 2.40921C8.33133 2.22158 8.77452 2.03356 9.36748 1.86814C10.5464 1.53925 12.2045 1.33038 14.0583 1.33038V0.330383C12.141 0.330383 10.3881 0.545243 9.09877 0.904917C8.45762 1.08378 7.9024 1.30624 7.49587 1.57544C7.10819 1.83216 6.7363 2.2145 6.7363 2.73716H7.7363ZM14.0583 1.33038C15.9122 1.33038 17.5703 1.53925 18.7492 1.86814C19.3422 2.03356 19.7853 2.22158 20.0687 2.40921C20.3709 2.60933 20.3804 2.73016 20.3804 2.73716H21.3804C21.3804 2.2145 21.0085 1.83216 20.6208 1.57544C20.2143 1.30624 19.6591 1.08378 19.0179 0.904917C17.7286 0.545243 15.9757 0.330383 14.0583 0.330383V1.33038ZM20.3804 6.12699C20.3804 6.13399 20.371 6.25483 20.0688 6.45494C19.7854 6.64257 19.3422 6.8306 18.7492 6.99602C17.5703 7.3249 15.9122 7.53377 14.0584 7.53377V8.53377C15.9758 8.53377 17.7287 8.31891 19.018 7.95924C19.6591 7.78038 20.2143 7.55792 20.6209 7.28871C21.0085 7.032 21.3804 6.64965 21.3804 6.12699H20.3804ZM14.0584 7.53377C13.356 7.53377 12.6932 7.49249 12.0133 7.45L11.9509 8.44805C12.627 8.49031 13.3201 8.53377 14.0584 8.53377V7.53377ZM11.9821 7.44903C12.0117 7.44903 12.0287 7.452 11.9754 7.44622C11.9431 7.44271 11.8967 7.43743 11.8374 7.43049C11.7193 7.41666 11.5543 7.39676 11.3578 7.37264C10.9648 7.32442 10.4479 7.25965 9.93236 7.19355C9.4165 7.12742 8.90325 7.06012 8.51697 7.00682C8.3234 6.98011 8.1641 6.95724 8.053 6.93996C7.99673 6.9312 7.95708 6.92454 7.93289 6.91998C7.91978 6.91751 7.91784 6.9169 7.92242 6.91803C7.92373 6.91835 7.93618 6.92136 7.95354 6.92728C7.96187 6.93012 7.98019 6.93661 8.00284 6.94733C8.01431 6.95275 8.07816 6.98203 8.14076 7.04463L7.43365 7.75173C7.49692 7.815 7.56192 7.84499 7.57502 7.85119C7.59931 7.86268 7.61975 7.87 7.63068 7.87373C7.65323 7.88142 7.67278 7.88642 7.68303 7.88895C7.70549 7.89449 7.72882 7.89913 7.74785 7.90271C7.78794 7.91026 7.84011 7.91887 7.89929 7.92807C8.01909 7.94671 8.1852 7.97051 8.38027 7.99743C8.77127 8.05139 9.28821 8.11915 9.80519 8.18543C10.3224 8.25175 10.8411 8.31674 11.236 8.36519C11.4333 8.38941 11.6004 8.40956 11.7211 8.4237C11.7813 8.43075 11.831 8.43643 11.8676 8.4404C11.8832 8.44208 11.942 8.44903 11.9821 8.44903V7.44903ZM20.3804 9.81365C20.3804 9.81544 20.3747 9.92843 20.0917 10.1219C19.8263 10.3033 19.4093 10.4879 18.8484 10.6528C17.7333 10.9808 16.1604 11.1997 14.3915 11.2205L14.4032 12.2204C16.236 12.1988 17.9046 11.9728 19.1306 11.6122C19.7402 11.4329 20.2687 11.2122 20.6561 10.9474C21.0259 10.6946 21.3804 10.3203 21.3804 9.81365H20.3804ZM20.3803 13.4998C20.3803 13.5031 20.3753 13.6133 20.0991 13.8019C19.8387 13.9798 19.4287 14.1604 18.8751 14.323C17.7747 14.646 16.2212 14.865 14.4701 14.9067L14.4939 15.9064C16.3022 15.8633 17.9479 15.6374 19.1568 15.2825C19.7578 15.106 20.28 14.8894 20.6632 14.6277C21.0306 14.3767 21.3803 14.0049 21.3803 13.4998H20.3803ZM6.7363 3.33027V7.65231H7.7363V3.33027H6.7363ZM20.3803 3.33027V13.4574H21.3803V3.33027H20.3803ZM13.8126 14.4323C13.8126 17.885 11.028 20.6696 7.57529 20.6696V21.6696C11.5802 21.6696 14.8126 18.4373 14.8126 14.4323H13.8126ZM7.57529 20.6696C4.16704 20.6696 1.38037 17.887 1.38037 14.4323H0.380371C0.380371 18.4352 3.61065 21.6696 7.57529 21.6696V20.6696ZM1.38037 14.4323C1.38037 10.9796 4.16499 8.19501 7.61766 8.19501V7.19501C3.6127 7.19501 0.380371 10.4273 0.380371 14.4323H1.38037ZM7.61191 8.19498C11.0278 8.23424 13.8126 11.0231 13.8126 14.4323H14.8126C14.8126 10.4686 11.5804 7.24053 7.62341 7.19504L7.61191 8.19498ZM7.73621 18.7965V17.7372H6.73621V18.7965H7.73621ZM7.23621 17.2372C6.74113 17.2372 6.20214 17.0542 5.90339 16.8551L5.34869 17.6871C5.81265 17.9964 6.54484 18.2372 7.23621 18.2372V17.2372ZM6.09753 17.4375L6.35177 16.7171L5.40878 16.3843L5.15454 17.1047L6.09753 17.4375ZM5.60293 16.9668C6.05344 17.2671 6.69925 17.5168 7.4057 17.5168V16.5168C6.92571 16.5168 6.46982 16.3428 6.15763 16.1347L5.60293 16.9668ZM7.4057 17.5168C7.87641 17.5168 8.31266 17.386 8.64191 17.1194C8.97845 16.847 9.17688 16.4514 9.17688 15.9999H8.17688C8.17688 16.1416 8.12109 16.2545 8.01271 16.3422C7.89704 16.4358 7.6977 16.5168 7.4057 16.5168V17.5168ZM9.17688 15.9999C9.17688 15.562 9.01196 15.2041 8.72324 14.9154C8.45487 14.647 8.08881 14.4475 7.69351 14.2718L7.28738 15.1856C7.65479 15.3489 7.88195 15.4883 8.01613 15.6225C8.12994 15.7363 8.17688 15.8446 8.17688 15.9999H9.17688ZM7.66993 14.262C7.13382 14.0558 6.77754 13.8623 6.55573 13.6484C6.35753 13.4573 6.25316 13.238 6.25316 12.9067H5.25316C5.25316 13.5076 5.46658 13.9874 5.8616 14.3683C6.23301 14.7264 6.74538 14.9778 7.31096 15.1954L7.66993 14.262ZM6.25316 12.9067C6.25316 12.3164 6.65363 11.8427 7.449 11.7044L7.27765 10.7192C6.12387 10.9198 5.25316 11.7173 5.25316 12.9067H6.25316ZM7.86333 11.2118V10.1524H6.86333V11.2118H7.86333ZM7.36333 10.6524H7.99892V9.65244H7.36333V10.6524ZM7.49892 10.1524V11.1694H8.49892V10.1524H7.49892ZM7.99892 11.6694C8.53738 11.6694 8.858 11.8103 9.06423 11.9576L9.64547 11.1439C9.25848 10.8675 8.73165 10.6694 7.99892 10.6694V11.6694ZM8.88669 11.3752L8.63245 12.0531L9.56878 12.4043L9.82302 11.7263L8.88669 11.3752ZM9.35786 11.8C9.09159 11.6402 8.57942 11.3897 7.78705 11.3897V12.3897C8.35062 12.3897 8.68591 12.563 8.84337 12.6575L9.35786 11.8ZM7.78705 11.3897C7.28656 11.3897 6.87499 11.5368 6.58623 11.8168C6.30043 12.0939 6.18536 12.4531 6.18536 12.7796H7.18536C7.18536 12.6823 7.2186 12.5965 7.28237 12.5347C7.34318 12.4757 7.48247 12.3897 7.78705 12.3897V11.3897ZM6.18536 12.7796C6.18536 13.2057 6.34821 13.5449 6.66874 13.8173C6.94895 14.0555 7.34805 14.24 7.8096 14.4288L8.18823 13.5032C7.71758 13.3107 7.4599 13.1774 7.31639 13.0554C7.21319 12.9676 7.18536 12.9043 7.18536 12.7796H6.18536ZM7.8041 14.4265C8.33301 14.6502 8.66464 14.859 8.86604 15.0837C9.04944 15.2882 9.15146 15.5356 9.15146 15.9151H10.1515C10.1515 15.3202 9.97806 14.826 9.61061 14.4161C9.26116 14.0264 8.76652 13.7478 8.19374 13.5055L7.8041 14.4265ZM9.15146 15.9151C9.15146 16.5018 8.75194 17.068 7.91992 17.2011L8.07791 18.1885C9.36454 17.9827 10.1515 17.0234 10.1515 15.9151H9.15146ZM7.49892 17.6948V18.7965H8.49892V17.6948H7.49892ZM7.99892 18.2965H7.23621V19.2965H7.99892V18.2965Z" fill="#1A1A1A"/>
</svg>
