<svg width="16" height="16" viewBox="0 0 16 16" fill="none" xmlns="http://www.w3.org/2000/svg">
    <path d="M2.75 14.7501H13.25C14.0784 14.7501 14.75 14.0785 14.75 13.2501V2.75006C14.75 1.92163 14.0784 1.25006 13.25 1.25006H2.75C1.92157 1.25006 1.25 1.92163 1.25 2.75006V13.2501C1.25 14.0785 1.92157 14.7501 2.75 14.7501ZM2.75 14.7501L11 6.50006L14.75 10.2501M6.5 5.37506C6.5 5.99638 5.99632 6.50006 5.375 6.50006C4.75368 6.50006 4.25 5.99638 4.25 5.37506C4.25 4.75374 4.75368 4.25006 5.375 4.25006C5.99632 4.25006 6.5 4.75374 6.5 5.37506Z" stroke="white" stroke-linecap="round" stroke-linejoin="round"/>
</svg>
