<svg width="20" height="20" viewBox="0 0 20 20" fill="none" xmlns="http://www.w3.org/2000/svg">
    <mask id="path-1-inside-1" fill="white">
        <path d="M19.3933 11.9061L11.9135 19.3879C11.7197 19.582 11.4896 19.7359 11.2363 19.8409C10.983 19.9459 10.7115 20 10.4373 20C10.1631 20 9.89163 19.9459 9.63835 19.8409C9.38506 19.7359 9.15495 19.582 8.96118 19.3879L0 10.4348V0H10.4321L19.3933 8.96352C19.7819 9.35454 20 9.88349 20 10.4348C20 10.9862 19.7819 11.5151 19.3933 11.9061Z"/>
        <path d="M6 5C6 5.55228 5.55228 6 5 6C4.44772 6 4 5.55228 4 5C4 4.44772 4.44772 4 5 4C5.55228 4 6 4.44772 6 5Z"/>
    </mask>
    <path d="M19.3933 11.9061L20.1005 12.6132L20.1026 12.6111L19.3933 11.9061ZM11.9135 19.3879L11.2063 18.6809L11.2059 18.6813L11.9135 19.3879ZM8.96118 19.3879L9.66877 18.6813L9.66797 18.6805L8.96118 19.3879ZM0 10.4348H-1C-1 10.7002 -0.894519 10.9547 -0.706787 11.1423L0 10.4348ZM0 0V-1C-0.552285 -1 -1 -0.552285 -1 0L0 0ZM10.4321 0L11.1393 -0.707014C10.9518 -0.894607 10.6974 -1 10.4321 -1V0ZM19.3933 8.96352L20.1026 8.25861L20.1005 8.25651L19.3933 8.96352ZM18.6861 11.1991L11.2063 18.6809L12.6207 20.0949L20.1005 12.6132L18.6861 11.1991ZM11.2059 18.6813C11.105 18.7824 10.9851 18.8625 10.8533 18.9172L11.6193 20.7647C11.994 20.6093 12.3344 20.3816 12.6211 20.0945L11.2059 18.6813ZM10.8533 18.9172C10.7214 18.9719 10.5801 19 10.4373 19V21C10.843 21 11.2446 20.92 11.6193 20.7647L10.8533 18.9172ZM10.4373 19C10.2946 19 10.1532 18.9719 10.0214 18.9172L9.25532 20.7647C9.63003 20.92 10.0317 21 10.4373 21V19ZM10.0214 18.9172C9.8895 18.8625 9.76968 18.7824 9.66877 18.6813L8.25359 20.0945C8.54022 20.3816 8.88062 20.6093 9.25532 20.7647L10.0214 18.9172ZM9.66797 18.6805L0.706787 9.72741L-0.706787 11.1423L8.25439 20.0953L9.66797 18.6805ZM1 10.4348V0H-1V10.4348H1ZM0 1H10.4321V-1H0V1ZM9.72491 0.707014L18.6861 9.67054L20.1005 8.25651L11.1393 -0.707014L9.72491 0.707014ZM18.684 9.66843C18.8864 9.87206 19 10.1476 19 10.4348H21C21 9.61939 20.6774 8.83702 20.1026 8.25861L18.684 9.66843ZM19 10.4348C19 10.7221 18.8864 10.9976 18.684 11.2012L20.1026 12.6111C20.6774 12.0326 21 11.2503 21 10.4348H19ZM5 5V7C6.10457 7 7 6.10457 7 5H5ZM5 5H3C3 6.10457 3.89543 7 5 7V5ZM5 5V3C3.89543 3 3 3.89543 3 5H5ZM5 5H7C7 3.89543 6.10457 3 5 3V5Z" fill="#1A1A1A" mask="url(#path-1-inside-1)"/>
</svg>
