<svg width="24" height="24" viewBox="0 0 24 24" fill="none" xmlns="http://www.w3.org/2000/svg">
    <path d="M12 14.5714C13.6569 14.5714 15 13.2283 15 11.5714C15 9.91456 13.6569 8.57141 12 8.57141C10.3431 8.57141 9 9.91456 9 11.5714C9 13.2283 10.3431 14.5714 12 14.5714Z" stroke="#1A1A1A" stroke-linecap="round" stroke-linejoin="round"/>
    <path d="M19.4 14.5714C19.2669 14.873 19.2272 15.2076 19.286 15.532C19.3448 15.8564 19.4995 16.1557 19.73 16.3914L19.79 16.4514C19.976 16.6372 20.1235 16.8577 20.2241 17.1005C20.3248 17.3433 20.3766 17.6036 20.3766 17.8664C20.3766 18.1292 20.3248 18.3895 20.2241 18.6323C20.1235 18.8751 19.976 19.0957 19.79 19.2814C19.6043 19.4674 19.3837 19.6149 19.1409 19.7155C18.8981 19.8162 18.6378 19.868 18.375 19.868C18.1122 19.868 17.8519 19.8162 17.6091 19.7155C17.3663 19.6149 17.1457 19.4674 16.96 19.2814L16.9 19.2214C16.6643 18.9909 16.365 18.8362 16.0406 18.7774C15.7162 18.7186 15.3816 18.7583 15.08 18.8914C14.7842 19.0182 14.532 19.2287 14.3543 19.4969C14.1766 19.7652 14.0813 20.0796 14.08 20.4014V20.5714C14.08 21.1018 13.8693 21.6106 13.4942 21.9856C13.1191 22.3607 12.6104 22.5714 12.08 22.5714C11.5496 22.5714 11.0409 22.3607 10.6658 21.9856C10.2907 21.6106 10.08 21.1018 10.08 20.5714V20.4814C10.0723 20.1504 9.96512 19.8294 9.77251 19.5601C9.5799 19.2908 9.31074 19.0857 9 18.9714C8.69838 18.8383 8.36381 18.7986 8.03941 18.8574C7.71502 18.9162 7.41568 19.0709 7.18 19.3014L7.12 19.3614C6.93425 19.5474 6.71368 19.6949 6.47088 19.7955C6.22808 19.8962 5.96783 19.948 5.705 19.948C5.44217 19.948 5.18192 19.8962 4.93912 19.7955C4.69632 19.6949 4.47575 19.5474 4.29 19.3614C4.10405 19.1757 3.95653 18.9551 3.85588 18.7123C3.75523 18.4695 3.70343 18.2092 3.70343 17.9464C3.70343 17.6836 3.75523 17.4233 3.85588 17.1805C3.95653 16.9377 4.10405 16.7172 4.29 16.5314L4.35 16.4714C4.58054 16.2357 4.73519 15.9364 4.794 15.612C4.85282 15.2876 4.81312 14.953 4.68 14.6514C4.55324 14.3556 4.34276 14.1034 4.07447 13.9257C3.80618 13.748 3.49179 13.6527 3.17 13.6514H3C2.46957 13.6514 1.96086 13.4407 1.58579 13.0656C1.21071 12.6906 1 12.1818 1 11.6514C1 11.121 1.21071 10.6123 1.58579 10.2372C1.96086 9.86213 2.46957 9.65141 3 9.65141H3.09C3.42099 9.64367 3.742 9.53653 4.0113 9.34392C4.28059 9.15131 4.48572 8.88215 4.6 8.57141C4.73312 8.2698 4.77282 7.93522 4.714 7.61082C4.65519 7.28643 4.50054 6.98709 4.27 6.75141L4.21 6.69141C4.02405 6.50566 3.87653 6.28509 3.77588 6.04229C3.67523 5.7995 3.62343 5.53924 3.62343 5.27641C3.62343 5.01358 3.67523 4.75333 3.77588 4.51053C3.87653 4.26773 4.02405 4.04716 4.21 3.86141C4.39575 3.67546 4.61632 3.52794 4.85912 3.42729C5.10192 3.32664 5.36217 3.27484 5.625 3.27484C5.88783 3.27484 6.14808 3.32664 6.39088 3.42729C6.63368 3.52794 6.85425 3.67546 7.04 3.86141L7.1 3.92141C7.33568 4.15195 7.63502 4.3066 7.95941 4.36542C8.28381 4.42423 8.61838 4.38453 8.92 4.25141H9C9.29577 4.12465 9.54802 3.91417 9.72569 3.64588C9.90337 3.37759 9.99872 3.0632 10 2.74141V2.57141C10 2.04098 10.2107 1.53227 10.5858 1.1572C10.9609 0.782125 11.4696 0.571411 12 0.571411C12.5304 0.571411 13.0391 0.782125 13.4142 1.1572C13.7893 1.53227 14 2.04098 14 2.57141V2.66141C14.0013 2.9832 14.0966 3.29759 14.2743 3.56588C14.452 3.83417 14.7042 4.04465 15 4.17141C15.3016 4.30453 15.6362 4.34423 15.9606 4.28542C16.285 4.2266 16.5843 4.07195 16.82 3.84141L16.88 3.78141C17.0657 3.59546 17.2863 3.44794 17.5291 3.34729C17.7719 3.24664 18.0322 3.19484 18.295 3.19484C18.5578 3.19484 18.8181 3.24664 19.0609 3.34729C19.3037 3.44794 19.5243 3.59546 19.71 3.78141C19.896 3.96716 20.0435 4.18773 20.1441 4.43053C20.2448 4.67333 20.2966 4.93358 20.2966 5.19641C20.2966 5.45924 20.2448 5.7195 20.1441 5.96229C20.0435 6.20509 19.896 6.42566 19.71 6.61141L19.65 6.67141C19.4195 6.90709 19.2648 7.20643 19.206 7.53082C19.1472 7.85522 19.1869 8.1898 19.32 8.49141V8.57141C19.4468 8.86718 19.6572 9.11943 19.9255 9.2971C20.1938 9.47478 20.5082 9.57013 20.83 9.57141H21C21.5304 9.57141 22.0391 9.78213 22.4142 10.1572C22.7893 10.5323 23 11.041 23 11.5714C23 12.1018 22.7893 12.6106 22.4142 12.9856C22.0391 13.3607 21.5304 13.5714 21 13.5714H20.91C20.5882 13.5727 20.2738 13.668 20.0055 13.8457C19.7372 14.0234 19.5268 14.2756 19.4 14.5714Z" stroke="#1A1A1A" stroke-linecap="round" stroke-linejoin="round"/>
</svg>
